<svg xmlns="http://www.w3.org/2000/svg" width="208.24" height="88" viewBox="0 0 208.24 88">
  <g id="Logo" transform="translate(-62.76 -38)">
    <text id="dream_drinks" data-name="dream
drinks" transform="translate(137 73)" fill="#9b9180" font-size="40" font-family="Comfortaa-Medium, Comfortaa" font-weight="500"><tspan x="0" y="0">dream</tspan><tspan fill="#ffa000"><tspan x="0" y="44">drinks</tspan></tspan></text>
    <g id="coconut-drink" transform="translate(65.147 41.504)">
      <path id="Path_1" data-name="Path 1" d="M29.8,154.676a1.366,1.366,0,0,1,2.191,0,10.511,10.511,0,0,0,17.532,0,1.366,1.366,0,0,1,2.191,0,10.511,10.511,0,0,0,17.532,0,1.366,1.366,0,0,1,2.191,0,10.514,10.514,0,0,0,6.226,4.4L67.95,145.29l-6.878,3.446a1.323,1.323,0,0,1-1.106.031l-8.546-3.663-7.3,4.865a1.314,1.314,0,0,1-1.315.083l-9.567-4.783L22.027,159.338a10.489,10.489,0,0,0,7.777-4.662Zm0,0" transform="translate(-21.039 -121.257)" fill="#ffa000"/>
      <path id="Path_2" data-name="Path 2" d="M12.278,260.843H50.837a31.306,31.306,0,0,0,12.277-24.982,30.6,30.6,0,0,0-2.021-10.539,13.111,13.111,0,0,1-9.155-4.436,13.139,13.139,0,0,1-19.723,0,13.139,13.139,0,0,1-19.723,0,13.117,13.117,0,0,1-9.861,4.456c-.263,0-.526-.01-.814-.03a31.556,31.556,0,0,0,10.461,35.531Zm-5.7-27.612a33.668,33.668,0,0,0,8.332,22.178l.547.624-1.98,1.731-.546-.623a36.3,36.3,0,0,1-8.983-23.909Zm0,0" transform="translate(-2.386 -182.96)" fill="#ffa000"/>
      <path id="Path_3" data-name="Path 3" d="M34.42,22.574V37.539l2.63,1.315V21.259A5.26,5.26,0,0,0,31.79,16H16.012v2.63H30.475a3.945,3.945,0,0,1,3.944,3.945Zm0,0" transform="translate(-16.012 -13.37)" fill="#ffa000"/>
      <path id="Path_4" data-name="Path 4" d="M225.843,12.166,214.45,2.039V0h-2.63V2.039L200.427,12.163a1.315,1.315,0,0,0,.459,2.235l1.907.635a32.645,32.645,0,0,0,9.027,1.612v8.336l2.63-1.315V16.646a32.647,32.647,0,0,0,9.027-1.613l1.907-.636a1.315,1.315,0,0,0,.459-2.235Zm0,0" transform="translate(-169.746 0)" fill="#ffa000"/>
    </g>
  </g>
</svg>
