<svg xmlns="http://www.w3.org/2000/svg" width="60.361" height="68.677" viewBox="0 0 60.361 68.677">
  <g id="user" transform="translate(-31)">
    <g id="Group_8" data-name="Group 8" transform="translate(43.072)">
      <g id="Group_7" data-name="Group 7">
        <path id="Path_11" data-name="Path 11" d="M139.108,0a18.108,18.108,0,1,0,18.108,18.108A18.129,18.129,0,0,0,139.108,0Z" transform="translate(-121)" fill="#ffa000"/>
      </g>
    </g>
    <g id="Group_10" data-name="Group 10" transform="translate(31 40.241)">
      <g id="Group_9" data-name="Group 9">
        <path id="Path_12" data-name="Path 12" d="M83.711,307.806A25.814,25.814,0,0,0,65.2,300H57.156a25.815,25.815,0,0,0-18.506,7.806A26.39,26.39,0,0,0,31,326.425a2.012,2.012,0,0,0,2.012,2.012H89.349a2.012,2.012,0,0,0,2.012-2.012A26.39,26.39,0,0,0,83.711,307.806Z" transform="translate(-31 -300)" fill="#ffa000"/>
      </g>
    </g>
  </g>
</svg>
